<?xml version="1.0" standalone="no"?>
<!DOCTYPE svg PUBLIC "-//W3C//DTD SVG 20010904//EN"
 "http://www.w3.org/TR/2001/REC-SVG-20010904/DTD/svg10.dtd">
<svg version="1.0" xmlns="http://www.w3.org/2000/svg"
 width="1000.000000pt" height="500.000000pt" viewBox="0 0 1000.000000 500.000000"
 preserveAspectRatio="xMidYMid meet">

<g transform="translate(0.000000,500.000000) scale(0.100000,-0.100000)"
fill="#000000" stroke="none">
<path d="M0 2500 l0 -2500 5000 0 5000 0 0 2500 0 2500 -5000 0 -5000 0 0
-2500z m9481 1486 c2 -24 3 -713 1 -1530 l-2 -1486 -4480 0 -4480 0 0 1530 0
1530 4479 0 4479 0 3 -44z m-9207 -1642 c19 -19 21 -48 3 -63 -14 -11 -87 -8
-107 4 -30 18 4 71 39 60 10 -3 22 -1 26 5 9 14 21 13 39 -6z m4 -106 c28 -28
1 -78 -42 -78 -23 0 -58 32 -69 63 -10 28 9 20 23 -10 12 -25 14 -26 18 -8 9
42 44 59 70 33z m-10 -114 c26 -18 28 -37 6 -58 -31 -31 -114 -12 -114 26 0
21 33 48 59 48 15 0 37 -7 49 -16z m22 -134 c0 -47 -8 -49 -40 -15 -30 32 -65
30 -64 -2 0 -13 -3 -23 -7 -23 -14 0 -21 21 -15 46 5 19 13 24 36 24 17 0 39
-9 50 -20 l20 -20 0 25 c0 14 5 25 10 25 6 0 10 -18 10 -40z m0 -80 c0 -5 -22
-10 -50 -10 -41 0 -50 -3 -50 -17 -1 -16 -2 -16 -15 1 -24 32 -18 36 50 36 37
0 65 -4 65 -10z m-10 -69 c14 -27 13 -37 -6 -55 -32 -32 -88 -8 -107 47 -10
28 9 20 23 -10 12 -25 14 -26 18 -8 10 46 53 61 72 26z m-6 -107 c19 -19 21
-48 3 -63 -14 -11 -87 -8 -107 4 -30 18 4 71 39 60 10 -3 22 -1 26 5 9 14 21
13 39 -6z m-43 -110 c33 -15 59 -31 59 -35 0 -12 -2 -12 -55 11 -26 11 -49 20
-51 20 -2 0 -4 -13 -4 -30 0 -16 -4 -30 -10 -30 -5 0 -10 20 -10 45 0 25 3 45
6 45 4 0 33 -12 65 -26z m32 -116 c3 -7 6 -1 6 15 1 43 21 31 21 -13 0 -47 -8
-49 -40 -15 -30 32 -65 30 -64 -2 1 -24 -10 -30 -21 -12 -11 17 4 57 23 62 21
4 68 -18 75 -35z m-49 -65 c6 -14 9 -15 15 -4 7 11 14 9 32 -9 18 -17 19 -21
7 -17 -12 4 -18 1 -18 -8 0 -8 8 -15 18 -16 12 0 10 -3 -7 -10 -17 -7 -27 -6
-32 2 -4 6 -12 8 -18 5 -6 -4 -18 -1 -26 8 -11 11 -12 16 -2 20 9 5 9 7 0 12
-7 3 -13 10 -13 15 0 6 5 7 10 4 6 -3 10 -1 10 4 0 17 17 13 24 -6z m116 -163
c0 -6 -38 -10 -94 -10 -53 0 -98 4 -101 10 -4 6 30 10 94 10 61 0 101 -4 101
-10z m-60 -110 l-23 -17 22 -6 c11 -3 21 -10 21 -16 0 -7 -27 -11 -75 -11 -61
0 -75 3 -75 15 0 10 8 15 23 14 12 -1 33 -1 46 -1 l23 2 -23 19 c-13 11 -21
23 -17 27 5 4 16 0 27 -10 17 -16 20 -15 42 3 14 12 26 15 28 9 2 -6 -7 -19
-19 -28z m-58 -92 c2 -17 10 -23 28 -23 18 0 26 6 28 23 4 25 22 31 22 6 0
-32 -20 -54 -50 -54 -30 0 -50 22 -50 54 0 25 18 19 22 -6z m62 -84 c19 -18
20 -28 6 -55 -16 -29 -67 -26 -81 5 -23 50 36 90 75 50z m-64 -94 c0 -15 58
-12 63 3 2 6 8 9 12 5 17 -16 -5 -38 -39 -38 -19 0 -37 -6 -40 -12 -5 -10 -7
-10 -12 0 -3 6 -12 12 -20 12 -8 0 -14 5 -14 10 0 6 7 10 15 10 8 0 15 5 15
10 0 6 5 10 10 10 6 0 10 -4 10 -10z m72 -84 c11 -25 6 -56 -10 -56 -4 0 -8
12 -7 28 0 34 -21 36 -38 2 -23 -45 -77 -34 -77 16 0 30 17 32 22 2 5 -32 21
-32 40 2 21 37 54 40 70 6z m-32 -158 c0 -36 16 -28 22 12 4 22 6 23 13 7 4
-10 3 -29 -3 -43 -16 -34 -68 -34 -84 1 -13 29 3 55 33 55 15 0 19 -7 19 -32z
m29 -99 c26 -46 10 -59 -69 -59 -56 0 -70 3 -70 15 0 9 9 15 23 15 16 0 26 9
34 31 10 25 16 30 40 27 17 -2 33 -13 42 -29z m-5 -95 c32 -31 7 -78 -38 -72
-39 4 -53 29 -38 62 13 30 51 35 76 10z m13 -120 c3 -8 1 -26 -5 -40 -9 -18
-19 -24 -43 -24 -25 0 -33 6 -42 30 -8 21 -18 30 -34 30 -13 0 -23 5 -23 10 0
6 30 10 70 10 55 0 72 -4 77 -16z m3 -88 c0 -7 -9 -16 -20 -19 -13 -3 -20 -14
-20 -30 0 -16 7 -26 20 -30 11 -3 20 -9 20 -15 0 -5 -32 0 -70 12 -48 14 -69
26 -68 35 2 11 60 37 136 60 1 1 2 -5 2 -13z"/>
<path d="M2422 3978 c-45 -49 -37 -119 17 -151 40 -23 75 -21 103 6 13 12 19
19 14 15 -19 -15 -73 -8 -99 12 -34 27 -43 70 -22 109 19 37 16 39 -13 9z"/>
<path d="M4617 3983 c-23 -27 -36 -66 -30 -96 7 -34 56 -77 89 -77 31 0 84 27
84 42 0 9 -3 9 -12 0 -18 -18 -72 -14 -100 8 -33 25 -43 75 -22 108 19 29 13
39 -9 15z"/>
<path d="M5236 3969 c-29 -34 -33 -67 -11 -108 28 -54 111 -65 151 -19 19 21
19 21 -3 9 -37 -19 -73 -13 -104 18 -33 33 -38 74 -13 109 22 32 10 27 -20 -9z"/>
<path d="M6189 3987 c-44 -34 -51 -102 -15 -144 33 -38 104 -40 138 -4 23 23
23 23 1 12 -37 -19 -73 -13 -104 18 -33 33 -38 74 -13 109 17 25 16 27 -7 9z"/>
<path d="M8366 3969 c-44 -52 -29 -117 33 -149 31 -16 83 -5 107 22 19 21 19
21 -3 9 -37 -19 -73 -13 -104 18 -33 33 -38 74 -13 109 22 32 10 27 -20 -9z"/>
<path d="M9319 3987 c-44 -34 -51 -102 -15 -144 33 -38 104 -40 138 -4 23 23
23 23 1 12 -37 -19 -73 -13 -104 18 -33 33 -38 74 -13 109 17 25 16 27 -7 9z"/>
<path d="M553 3964 c-27 -42 -20 -93 16 -126 17 -16 43 -28 57 -28 22 0 84 25
84 34 0 2 -19 1 -42 -1 -58 -7 -98 28 -98 85 0 21 5 43 12 50 9 9 9 12 0 12
-6 0 -19 -12 -29 -26z"/>
<path d="M846 3965 c-37 -57 -6 -138 58 -151 34 -6 87 13 102 37 5 8 1 8 -14
0 -36 -19 -72 -13 -103 18 -31 32 -40 86 -17 109 8 8 8 12 1 12 -6 0 -18 -11
-27 -25z"/>
<path d="M1161 3964 c-23 -29 -27 -74 -11 -105 27 -50 117 -61 155 -19 17 19
17 19 -13 8 -40 -15 -78 -3 -106 35 -17 24 -19 32 -9 67 5 22 9 40 7 40 -1 0
-12 -12 -23 -26z"/>
<path d="M1469 3958 c-26 -43 -19 -84 21 -120 37 -34 80 -36 112 -5 13 12 19
19 14 15 -15 -12 -64 -10 -88 3 -11 6 -26 26 -34 45 -13 31 -13 39 0 65 20 39
1 37 -25 -3z"/>
<path d="M1786 3968 c-27 -38 -20 -95 13 -129 33 -33 67 -37 111 -14 37 19 39
28 5 19 -60 -15 -115 26 -115 86 0 20 5 41 12 48 9 9 9 12 1 12 -7 0 -19 -10
-27 -22z"/>
<path d="M2101 3964 c-28 -36 -27 -86 3 -121 33 -38 104 -40 138 -4 23 23 23
23 1 12 -76 -39 -162 45 -123 120 15 27 5 24 -19 -7z"/>
<path d="M2724 3965 c-27 -42 -21 -95 15 -127 17 -15 43 -28 57 -28 22 0 84
25 84 34 0 2 -20 1 -44 -1 -38 -5 -48 -2 -70 20 -28 29 -36 93 -14 115 9 9 9
12 0 12 -6 0 -19 -11 -28 -25z"/>
<path d="M3035 3960 c-33 -64 -5 -134 59 -146 34 -6 87 13 102 37 5 8 1 8 -14
0 -74 -40 -161 46 -122 120 7 13 7 19 1 19 -6 0 -17 -13 -26 -30z"/>
<path d="M3351 3964 c-69 -88 54 -204 136 -128 22 20 23 23 6 15 -74 -37 -153
35 -124 112 13 34 8 34 -18 1z"/>
<path d="M3663 3964 c-28 -43 -22 -92 15 -125 18 -16 44 -29 58 -29 31 0 84
26 84 42 0 9 -3 9 -12 0 -21 -21 -77 -14 -103 13 -27 27 -35 91 -13 113 9 9 9
12 0 12 -6 0 -19 -12 -29 -26z"/>
<path d="M3980 3968 c-28 -31 -27 -89 4 -125 33 -38 104 -40 138 -4 23 23 23
23 1 12 -76 -39 -162 45 -123 120 14 25 6 24 -20 -3z"/>
<path d="M4291 3964 c-72 -92 68 -209 145 -122 19 21 19 21 -3 9 -75 -39 -162
45 -123 120 15 27 5 24 -19 -7z"/>
<path d="M4916 3968 c-27 -38 -20 -95 13 -129 33 -33 67 -37 111 -14 37 19 39
28 5 19 -60 -15 -115 26 -115 86 0 20 5 41 12 48 9 9 9 12 1 12 -7 0 -19 -10
-27 -22z"/>
<path d="M5546 3971 c-9 -10 -19 -35 -23 -54 -5 -32 -1 -41 30 -72 42 -42 84
-47 119 -12 13 12 19 19 14 15 -14 -11 -64 -10 -87 2 -33 18 -52 67 -40 102
14 38 10 44 -13 19z"/>
<path d="M5856 3968 c-27 -38 -20 -95 13 -129 33 -33 67 -37 111 -14 38 20 38
26 0 19 -35 -8 -87 11 -100 37 -14 25 -12 83 2 97 9 9 9 12 1 12 -7 0 -19 -10
-27 -22z"/>
<path d="M6487 3973 c-40 -45 -28 -122 24 -148 41 -22 74 -18 106 11 22 20 23
23 6 15 -73 -36 -159 41 -123 109 15 28 8 35 -13 13z"/>
<path d="M6802 3977 c-6 -7 -16 -25 -21 -40 -20 -53 31 -127 87 -127 30 0 82
27 82 42 0 9 -3 9 -12 0 -21 -21 -73 -14 -102 13 -19 18 -26 34 -26 63 0 21 5
43 12 50 8 8 8 12 1 12 -6 0 -15 -6 -21 -13z"/>
<path d="M7106 3965 c-24 -36 -20 -89 8 -122 33 -38 104 -40 138 -4 23 23 23
23 1 12 -76 -39 -162 45 -123 120 15 28 -5 23 -24 -6z"/>
<path d="M7421 3964 c-69 -88 52 -203 136 -129 l28 24 -32 -11 c-41 -15 -79
-3 -107 35 -17 24 -19 32 -9 67 5 22 9 40 7 40 -1 0 -12 -12 -23 -26z"/>
<path d="M7733 3964 c-28 -43 -22 -92 15 -125 35 -31 66 -36 107 -17 30 13 34
28 5 21 -28 -7 -67 4 -90 27 -23 23 -27 89 -8 108 9 9 9 12 0 12 -6 0 -19 -12
-29 -26z"/>
<path d="M8046 3968 c-9 -12 -16 -39 -16 -59 0 -74 73 -119 139 -85 17 9 31
18 31 19 0 1 -23 2 -51 2 -42 0 -53 4 -69 25 -22 28 -26 71 -10 101 15 27 -5
25 -24 -3z"/>
<path d="M8669 3958 c-26 -43 -19 -84 21 -120 37 -34 80 -36 112 -5 13 12 19
19 14 15 -17 -13 -70 -9 -92 7 -12 8 -27 28 -34 44 -10 25 -9 35 3 60 21 41 2
40 -24 -1z"/>
<path d="M8986 3968 c-27 -38 -20 -95 13 -129 33 -33 67 -37 111 -14 37 19 39
28 5 19 -60 -15 -115 26 -115 86 0 20 5 41 12 48 9 9 9 12 1 12 -7 0 -19 -10
-27 -22z"/>
<path d="M758 3772 c-3 -10 -4 -33 -3 -52 1 -19 2 -592 3 -1272 l2 -1238 4245
0 4245 0 0 1290 0 1290 -4244 0 c-4071 0 -4244 -1 -4248 -18z m1702 -503 c36
-5 84 -19 107 -29 60 -26 127 -100 155 -168 23 -57 23 -60 23 -502 0 -405 -2
-450 -18 -497 -26 -74 -92 -143 -169 -179 -55 -25 -75 -28 -158 -29 -130 0
-187 20 -261 95 -47 47 -61 68 -78 124 -20 64 -21 90 -21 480 0 310 3 423 14
461 36 135 114 212 246 241 70 16 82 16 160 3z m4526 -34 c63 -31 108 -79 143
-155 l26 -55 3 -434 c3 -419 2 -437 -18 -504 -18 -59 -31 -79 -78 -127 -73
-73 -131 -94 -257 -95 -62 0 -106 6 -142 18 -73 26 -143 92 -179 169 l-29 63
0 450 c0 444 0 451 23 506 30 75 81 132 146 164 99 49 263 48 362 0z m864 12
c71 -26 140 -97 172 -174 23 -58 23 -60 23 -508 l0 -450 -28 -61 c-35 -76 -84
-125 -162 -161 -53 -25 -71 -28 -160 -27 -79 0 -112 5 -156 22 -72 29 -142 98
-171 171 -23 55 -23 62 -23 511 l0 455 26 55 c36 76 80 124 144 156 97 47 226
51 335 11z m-6145 -5 c103 -47 158 -129 174 -258 17 -140 -2 -261 -53 -334
l-23 -34 33 -43 c52 -68 64 -125 64 -297 -1 -168 -11 -211 -67 -289 -23 -33
-49 -54 -99 -78 l-68 -34 -248 -3 -248 -4 0 702 0 702 243 -4 c228 -3 245 -4
292 -26z m1545 -532 l0 -550 165 0 165 0 0 -140 0 -140 -315 0 -315 0 0 690 0
690 150 0 150 0 0 -550z m760 0 l0 -550 164 0 165 0 3 -140 3 -140 -317 0
-318 0 0 683 c0 376 3 687 7 690 3 4 71 7 150 7 l143 0 0 -550z m4778 521 c75
-34 137 -106 162 -190 20 -64 21 -89 18 -497 l-3 -429 -33 -67 c-24 -49 -45
-76 -80 -101 -83 -61 -115 -67 -372 -67 l-230 0 0 691 0 690 243 -3 c230 -3
245 -4 295 -27z m-4130 -138 c23 -87 47 -182 53 -210 7 -29 15 -53 18 -53 4 0
31 94 61 210 l55 210 148 0 c137 0 148 -1 143 -17 -3 -10 -64 -215 -136 -456
l-130 -437 0 -230 0 -230 -150 0 -150 0 0 236 0 237 -131 440 c-71 243 -132
445 -135 449 -3 4 66 8 154 8 l159 0 41 -157z m892 -78 c21 -217 36 -328 39
-281 2 47 42 454 47 484 l5 32 138 0 138 0 6 -72 c28 -317 40 -435 45 -448 3
-8 18 104 33 250 15 146 28 266 28 268 1 1 62 2 136 2 l135 0 -5 -37 c-7 -44
-145 -1290 -145 -1304 0 -5 -72 -9 -174 -9 l-173 0 -6 38 c-4 20 -9 74 -13
119 -4 45 -10 80 -14 78 -4 -3 -11 -46 -14 -97 -12 -154 10 -139 -194 -136
l-177 3 -72 645 c-39 355 -72 657 -72 673 l-1 27 143 0 144 0 23 -235z"/>
<path d="M2333 3220 c-118 -17 -196 -86 -227 -202 -15 -55 -17 -115 -14 -478
3 -409 3 -416 26 -465 51 -112 134 -159 277 -159 70 0 100 4 136 20 66 30 113
77 140 136 24 53 24 55 27 472 3 396 2 423 -17 485 -25 81 -69 132 -142 165
-62 27 -131 36 -206 26z m17 -79 c14 -27 13 -37 -6 -55 -40 -40 -101 3 -75 53
15 28 66 29 81 2z m178 -3 c21 -21 14 -57 -14 -70 -31 -14 -57 -1 -62 31 -7
42 46 69 76 39z m-63 -122 c13 -13 26 -39 30 -57 3 -19 5 -208 3 -421 l-3
-388 -27 -26 c-38 -39 -108 -39 -146 0 l-27 26 0 421 0 421 28 24 c39 33 108
34 142 0z m-244 -6 c28 -15 26 -68 -3 -79 -52 -19 -89 30 -53 69 21 23 29 24
56 10z m403 -9 c33 -36 -10 -94 -53 -72 -27 15 -34 41 -16 67 19 29 46 31 69
5z m-386 -220 c3 -25 -2 -33 -23 -43 -51 -23 -86 31 -46 71 29 29 65 15 69
-28z m390 27 c17 -17 15 -38 -5 -60 -21 -23 -45 -23 -67 1 -25 28 -6 71 32 71
15 0 33 -5 40 -12z m-407 -198 c39 -21 16 -90 -30 -90 -14 0 -41 29 -41 46 0
13 34 54 46 54 3 0 14 -5 25 -10z m397 -6 c26 -18 28 -41 5 -66 -22 -24 -48
-23 -67 3 -16 23 -12 47 12 67 20 15 23 15 50 -4z m-397 -204 c39 -21 16 -90
-30 -90 -14 0 -41 29 -41 46 0 13 34 54 46 54 3 0 14 -5 25 -10z m397 -6 c30
-21 25 -54 -11 -74 -27 -14 -29 -14 -47 8 -20 24 -17 49 8 70 20 15 23 15 50
-4z m-397 -204 c26 -15 26 -66 -1 -80 -48 -26 -91 30 -55 70 21 23 29 24 56
10z m403 -9 c24 -26 17 -52 -17 -71 -27 -14 -29 -14 -47 8 -20 24 -17 49 8 70
22 17 36 15 56 -7z m-282 -156 c9 -21 8 -28 -7 -45 -40 -44 -104 -3 -76 49 17
31 68 29 83 -4z m176 13 c21 -21 14 -57 -14 -70 -31 -14 -57 -1 -62 31 -7 42
46 69 76 39z"/>
<path d="M2350 2971 c-6 -13 -10 -160 -10 -409 0 -364 1 -390 18 -405 26 -23
58 -21 76 5 14 19 16 74 16 400 0 220 -4 387 -10 402 -8 21 -16 26 -44 26 -25
0 -38 -6 -46 -19z"/>
<path d="M6749 3219 c-122 -14 -202 -84 -234 -204 -14 -52 -16 -117 -13 -475
3 -409 3 -416 26 -465 51 -112 134 -159 277 -159 107 0 175 25 229 84 70 78
71 83 71 575 l0 440 -28 57 c-57 116 -169 166 -328 147z m11 -79 c22 -41 -13
-80 -59 -65 -24 7 -31 32 -17 63 12 29 61 31 76 2z m186 -15 c3 -14 4 -32 1
-40 -8 -20 -54 -30 -72 -15 -32 27 -9 80 35 80 23 0 31 -5 36 -25z m-85 -95
c47 -26 49 -43 49 -460 0 -443 -1 -451 -67 -469 -47 -13 -87 -4 -115 26 l-23
25 -3 386 c-2 213 0 402 3 421 9 50 46 81 95 81 23 0 50 -5 61 -10z m-217 -31
c30 -43 -20 -93 -63 -63 -25 18 -26 32 -5 62 19 28 48 28 68 1z m388 4 c25
-22 23 -50 -6 -68 -34 -23 -66 -5 -66 35 0 44 39 63 72 33z m-381 -205 c8 -14
6 -25 -6 -44 -18 -28 -46 -31 -69 -8 -21 21 -20 40 3 63 23 23 57 18 72 -11z
m397 -12 c5 -22 -25 -56 -49 -56 -29 0 -50 38 -37 66 6 13 18 25 27 27 21 5
55 -16 59 -37z m-408 -186 c11 -11 20 -24 20 -30 0 -15 -38 -50 -54 -50 -19 0
-46 27 -46 46 0 16 35 54 50 54 6 0 19 -9 30 -20z m388 4 c26 -18 28 -41 5
-66 -31 -35 -73 -16 -73 34 0 15 8 31 18 37 23 14 24 14 50 -5z m-388 -214
c11 -11 20 -24 20 -30 0 -15 -38 -50 -54 -50 -18 0 -46 27 -46 43 0 20 30 57
46 57 8 0 23 -9 34 -20z m388 4 c26 -18 28 -41 5 -66 -31 -35 -73 -16 -73 34
0 15 8 31 18 37 23 14 24 14 50 -5z m-396 -206 c26 -22 29 -47 8 -68 -24 -24
-38 -25 -62 -3 -23 21 -23 38 2 63 23 23 31 24 52 8z m400 -5 c25 -22 23 -50
-6 -68 -34 -23 -66 -5 -66 35 0 44 39 63 72 33z m-282 -153 c22 -41 -13 -80
-59 -65 -26 8 -33 30 -19 60 14 32 62 35 78 5z m178 8 c21 -21 14 -57 -14 -70
-31 -14 -57 -1 -62 31 -7 42 46 69 76 39z"/>
<path d="M6760 2971 c-6 -13 -10 -160 -10 -409 0 -364 1 -390 18 -405 26 -23
58 -21 76 5 14 19 16 75 16 406 0 245 -4 390 -10 403 -7 13 -21 19 -45 19 -24
0 -38 -6 -45 -19z"/>
<path d="M7632 3219 c-111 -14 -195 -86 -227 -191 -24 -80 -22 -836 2 -922 24
-88 93 -155 183 -180 161 -45 323 17 381 146 24 53 24 56 27 466 3 457 0 493
-58 577 -55 80 -177 121 -308 104z m18 -80 c16 -28 -11 -69 -45 -69 -33 0 -52
38 -36 69 16 28 66 29 81 0z m178 -1 c21 -21 14 -57 -14 -70 -31 -14 -57 -1
-62 31 -7 42 46 69 76 39z m-63 -122 c13 -13 26 -39 30 -57 3 -19 5 -208 3
-421 l-3 -388 -26 -26 c-38 -38 -110 -38 -147 0 l-27 26 0 421 0 421 28 24
c39 33 108 34 142 0z m-244 -6 c28 -15 26 -68 -3 -79 -52 -19 -89 30 -53 69
21 23 29 24 56 10z m403 -9 c22 -24 13 -59 -17 -70 -45 -17 -78 25 -52 65 19
29 46 31 69 5z m-386 -219 c2 -23 -2 -34 -19 -42 -52 -28 -96 40 -48 74 31 21
63 6 67 -32z m397 7 c8 -24 -19 -59 -45 -59 -26 0 -53 35 -45 60 14 44 76 43
90 -1z m-414 -179 c26 -15 26 -66 -1 -80 -51 -27 -95 36 -50 72 26 21 26 21
51 8z m399 -10 c11 -11 20 -26 20 -34 0 -16 -37 -46 -57 -46 -16 0 -43 28 -43
46 0 16 35 54 50 54 6 0 19 -9 30 -20z m-399 -200 c26 -15 26 -66 -1 -80 -51
-27 -95 36 -50 72 26 21 26 21 51 8z m400 -11 c26 -26 21 -49 -14 -69 -27 -14
-29 -14 -48 9 -24 29 -24 36 1 61 25 25 35 25 61 -1z m-400 -199 c26 -15 26
-66 -1 -80 -48 -26 -91 30 -55 70 21 23 29 24 56 10z m404 -14 c32 -49 -31
-101 -67 -56 -23 28 -23 35 2 60 27 27 46 25 65 -4z m-100 -147 c13 -20 -5
-59 -30 -65 -51 -13 -76 50 -33 80 21 15 49 9 63 -15z m-186 -1 c20 -52 -57
-95 -80 -45 -16 36 3 67 42 67 22 0 32 -6 38 -22z"/>
<path d="M7652 2978 c-9 -9 -12 -114 -12 -409 0 -432 0 -429 55 -429 53 0 55
12 55 425 0 328 -2 384 -16 403 -17 24 -62 30 -82 10z"/>
<path d="M1220 2570 l0 -651 213 3 c198 3 215 5 264 27 70 31 118 86 139 156
23 81 17 334 -10 385 -24 45 -64 88 -99 106 l-28 15 33 22 c73 50 98 116 98
263 0 167 -37 245 -139 293 -54 25 -64 26 -263 29 l-208 4 0 -652z m124 561
c22 -25 13 -58 -20 -73 -19 -9 -28 -8 -44 7 -24 22 -25 34 -4 63 19 27 45 28
68 3z m210 0 c22 -25 13 -58 -20 -73 -19 -9 -28 -8 -44 7 -24 22 -25 34 -4 63
19 27 45 28 68 3z m170 -57 c23 -23 20 -51 -8 -69 -33 -22 -66 -5 -66 33 0 49
42 69 74 36z m-135 -58 c25 -16 41 -75 41 -153 0 -131 -34 -173 -142 -173
l-57 0 -3 168 c-2 92 -2 169 -1 172 2 8 147 -4 162 -14z m-251 -42 c28 -19 28
-49 0 -68 -28 -20 -43 -20 -62 0 -21 21 -20 40 4 64 24 24 29 24 58 4z m410
-76 c7 -7 12 -24 12 -40 0 -52 -73 -63 -86 -12 -11 44 43 83 74 52z m-403
-108 c15 -17 16 -24 7 -46 -10 -20 -18 -25 -44 -22 -43 4 -57 29 -35 62 21 31
47 33 72 6z m369 -76 c9 -8 16 -22 16 -29 0 -21 -29 -45 -54 -45 -43 0 -59 39
-29 72 20 22 46 23 67 2z m-364 -103 c14 -27 13 -37 -6 -55 -40 -40 -101 3
-75 53 15 28 66 29 81 2z m192 -6 c9 -21 8 -28 -7 -45 -39 -43 -100 -7 -77 44
16 36 68 37 84 1z m207 -99 c7 -8 11 -27 9 -43 -3 -24 -8 -28 -37 -31 -20 -2
-37 2 -42 10 -30 47 35 106 70 64z m-150 -22 c38 -27 51 -74 51 -189 0 -169
-21 -195 -162 -195 l-58 0 0 178 c0 97 -3 187 -6 200 -6 21 -4 22 73 22 56 0
85 -5 102 -16z m-249 -73 c14 -27 13 -37 -6 -55 -40 -40 -101 3 -75 53 15 28
66 29 81 2z m430 -101 c11 -11 20 -24 20 -30 0 -15 -38 -50 -54 -50 -19 0 -46
28 -46 47 0 21 29 53 47 53 7 0 22 -9 33 -20z m-436 -79 c22 -25 13 -58 -20
-73 -19 -9 -28 -8 -44 7 -24 22 -25 34 -4 63 19 27 45 28 68 3z m387 -111 c29
-16 26 -67 -5 -81 -50 -23 -90 36 -50 75 18 19 28 20 55 6z m-381 -79 c14 -27
13 -37 -6 -55 -40 -40 -101 3 -75 53 15 28 66 29 81 2z m188 7 c7 -7 12 -21
12 -33 0 -12 -5 -26 -12 -33 -7 -7 -21 -12 -33 -12 -12 0 -26 5 -33 12 -7 7
-12 21 -12 33 0 12 5 26 12 33 7 7 21 12 33 12 12 0 26 -5 33 -12z"/>
<path d="M1471 2859 l-1 -120 42 3 c34 2 45 8 55 28 15 30 17 148 3 184 -8 23
-15 26 -54 26 l-45 0 0 -121z"/>
<path d="M1473 2303 l2 -148 47 -3 c67 -4 78 15 78 143 0 132 -9 149 -77 153
l-52 3 2 -148z"/>
<path d="M2998 3203 c-2 -4 -2 -293 0 -640 l2 -633 265 0 265 0 0 90 0 90
-165 0 -165 0 -2 548 -3 547 -97 3 c-53 1 -98 -1 -100 -5z m123 -33 c21 -12
25 -50 7 -68 -17 -17 -65 -15 -72 4 -10 25 -7 42 10 58 18 19 28 20 55 6z m7
-182 c30 -30 3 -83 -39 -76 -32 5 -45 31 -31 62 13 28 49 35 70 14z m0 -180
c30 -30 3 -83 -39 -76 -32 5 -45 31 -31 62 13 28 49 35 70 14z m-7 -198 c21
-12 25 -50 7 -68 -17 -17 -65 -15 -72 4 -10 25 -7 42 10 58 18 19 28 20 55 6z
m7 -182 c28 -28 7 -78 -33 -78 -27 0 -45 18 -45 45 0 27 18 45 45 45 12 0 26
-5 33 -12z m0 -190 c21 -21 14 -57 -14 -70 -31 -14 -57 -1 -62 31 -7 42 46 69
76 39z m7 -224 c0 -22 -6 -31 -27 -38 -52 -18 -82 46 -36 78 30 21 63 0 63
-40z m155 36 c24 -24 25 -38 3 -62 -22 -24 -48 -23 -67 3 -16 23 -12 47 12 67
21 16 29 15 52 -8z m164 4 c25 -25 20 -63 -10 -76 -52 -24 -89 43 -42 76 28
20 33 20 52 0z"/>
<path d="M3760 2570 l0 -640 270 0 271 0 -3 88 -3 87 -168 3 -167 2 0 518 c0
284 0 532 0 550 l0 32 -100 0 -100 0 0 -640z m134 594 c34 -34 9 -78 -41 -72
-23 2 -29 9 -31 33 -6 46 40 71 72 39z m0 -180 c34 -34 9 -78 -41 -72 -22 2
-29 9 -31 31 -6 50 38 75 72 41z m0 -180 c34 -34 9 -78 -41 -72 -22 2 -29 9
-31 31 -6 50 38 75 72 41z m0 -200 c34 -34 9 -78 -41 -72 -22 2 -29 9 -31 31
-6 50 38 75 72 41z m6 -184 c15 -29 3 -59 -26 -66 -30 -8 -54 11 -54 40 0 46
59 64 80 26z m0 -185 c19 -22 4 -64 -25 -71 -42 -11 -67 24 -49 70 8 20 57 21
74 1z m8 -212 c7 -44 -58 -69 -81 -32 -14 22 -1 67 21 72 24 5 56 -16 60 -40z
m143 37 c39 -21 16 -90 -30 -90 -14 0 -41 29 -41 46 0 13 34 54 46 54 3 0 14
-5 25 -10z m187 -37 c7 -44 -58 -69 -81 -32 -14 22 -1 67 21 72 24 5 56 -16
60 -40z"/>
<path d="M8300 2569 l0 -640 218 3 c246 3 264 8 335 87 66 73 68 95 65 567 -3
417 -3 419 -27 472 -13 29 -41 68 -62 86 -66 56 -116 66 -335 66 l-194 0 0
-641z m135 565 c22 -22 15 -56 -14 -71 -34 -16 -61 0 -61 35 0 49 42 69 75 36z
m220 -8 c30 -45 -20 -91 -64 -59 -25 17 -26 31 -5 61 20 29 50 28 69 -2z m186
-105 c17 -44 -58 -83 -81 -42 -14 28 -13 38 10 61 24 24 59 15 71 -19z m-172
-6 c50 -26 52 -39 49 -464 l-3 -393 -28 -24 c-25 -21 -38 -24 -108 -24 l-79 0
0 460 0 460 70 0 c43 0 82 -6 99 -15z m-227 -61 c17 -36 0 -59 -43 -59 -30 0
-34 3 -37 28 -7 57 57 81 80 31z m399 -84 c26 -15 26 -66 -1 -80 -48 -26 -91
30 -55 70 21 23 29 24 56 10z m-406 -80 c24 -26 13 -68 -20 -76 -48 -12 -75
45 -39 80 21 21 37 20 59 -4z m413 -112 c30 -30 3 -83 -39 -76 -32 5 -45 31
-31 62 13 28 49 35 70 14z m-410 -60 c28 -28 7 -78 -33 -78 -27 0 -45 18 -45
45 0 12 5 26 12 33 7 7 21 12 33 12 12 0 26 -5 33 -12z m410 -120 c7 -7 12
-25 12 -40 0 -22 -6 -29 -27 -34 -50 -13 -80 30 -47 67 20 22 44 25 62 7z
m-400 -105 c7 -44 -58 -69 -81 -32 -14 22 -1 67 21 72 24 5 56 -16 60 -40z
m393 -73 c26 -15 26 -66 -1 -80 -51 -27 -95 36 -50 72 26 21 26 21 51 8z
m-401 -84 c15 -19 9 -56 -11 -69 -9 -5 -28 -7 -42 -3 -48 12 -32 86 19 86 12
0 27 -7 34 -14z m384 -112 c9 -8 16 -22 16 -29 0 -45 -73 -61 -92 -20 -21 46
40 86 76 49z m-392 -71 c25 -22 23 -50 -6 -68 -34 -23 -66 -5 -66 35 0 44 39
63 72 33z m206 -5 c21 -21 14 -57 -14 -70 -31 -14 -57 -1 -62 31 -7 42 46 69
76 39z"/>
<path d="M8550 2570 l0 -410 50 0 c38 0 52 4 60 19 6 13 10 155 10 395 0 423
3 406 -76 406 l-44 0 0 -410z"/>
<path d="M4373 3193 c2 -10 59 -201 126 -425 l121 -408 0 -215 0 -215 100 0
100 0 0 206 0 206 125 420 c69 232 125 427 125 435 0 11 -19 13 -92 11 l-92
-3 -32 -120 c-18 -66 -52 -196 -77 -290 -24 -93 -47 -163 -50 -155 -3 8 -36
132 -73 275 -37 143 -71 268 -76 278 -7 14 -24 17 -110 17 -91 0 -100 -2 -95
-17z m138 -33 c39 -21 16 -90 -30 -90 -14 0 -41 29 -41 46 0 13 34 54 46 54 3
0 14 -5 25 -10z m477 -12 c7 -7 12 -21 12 -33 0 -12 -5 -26 -12 -33 -7 -7 -21
-12 -33 -12 -12 0 -26 5 -33 12 -7 7 -12 21 -12 33 0 12 5 26 12 33 7 7 21 12
33 12 12 0 26 -5 33 -12z m-423 -148 c36 -40 -7 -96 -55 -70 -27 14 -26 55 2
74 29 20 31 20 53 -4z m385 -4 c15 -19 9 -56 -11 -69 -9 -5 -28 -7 -42 -3 -48
12 -32 86 19 86 12 0 27 -7 34 -14z m-318 -181 c10 -22 9 -29 -9 -47 -41 -40
-100 2 -73 52 16 30 67 27 82 -5z m256 13 c7 -7 12 -25 12 -40 0 -22 -6 -29
-27 -34 -50 -13 -80 30 -47 67 20 22 44 25 62 7z m-218 -206 c28 -23 20 -58
-17 -75 -22 -10 -28 -8 -44 12 -24 29 -24 36 1 61 25 25 32 25 60 2z m170 -2
c11 -11 20 -24 20 -30 0 -15 -38 -50 -54 -50 -14 0 -46 36 -46 52 0 11 38 48
50 48 6 0 19 -9 30 -20z m-89 -170 c26 -15 26 -66 -1 -80 -51 -27 -95 36 -50
72 26 21 26 21 51 8z m17 -238 c6 -56 -71 -70 -84 -15 -5 20 -2 31 15 44 31
26 65 11 69 -29z m-10 -144 c28 -28 7 -78 -33 -78 -43 0 -58 39 -28 72 19 21
44 23 61 6z"/>
<path d="M5295 3168 c5 -38 135 -1205 135 -1214 0 -2 61 -4 135 -4 74 0 135 1
135 3 0 2 14 126 30 275 17 150 30 292 30 316 0 25 3 47 8 50 4 2 23 -142 42
-320 l34 -325 130 3 131 3 67 595 c37 327 67 610 67 628 l1 32 -85 0 c-61 0
-85 -3 -85 -12 1 -46 -95 -955 -102 -963 -4 -5 -8 11 -8 35 0 44 -75 845 -86
908 l-5 32 -94 0 c-87 0 -95 -2 -95 -19 0 -42 -90 -955 -95 -959 -3 -3 -5 8
-5 24 0 30 -87 865 -96 922 l-5 32 -95 0 -95 0 6 -42z m123 0 c7 -7 12 -21 12
-33 0 -12 -5 -26 -12 -33 -26 -26 -78 -8 -78 27 0 20 30 51 50 51 9 0 21 -5
28 -12z m383 2 c29 -16 25 -58 -7 -72 -47 -22 -85 30 -49 66 19 19 29 20 56 6z
m393 -6 c9 -8 16 -22 16 -29 0 -19 -28 -45 -49 -45 -39 0 -57 60 -23 79 24 15
38 13 56 -5z m-760 -160 c30 -30 13 -74 -29 -74 -43 0 -58 39 -28 72 20 22 37
23 57 2z m370 0 c30 -30 13 -74 -29 -74 -43 0 -58 39 -28 72 20 22 37 23 57 2z
m370 3 c12 -9 17 -23 14 -42 -2 -25 -8 -31 -33 -33 -19 -3 -33 2 -42 14 -17
24 -17 30 7 54 24 24 30 24 54 7z m-714 -172 c17 -21 5 -61 -21 -68 -30 -8
-48 2 -55 29 -8 30 11 54 41 54 12 0 28 -7 35 -15z m298 -22 c4 -38 -25 -60
-57 -44 -24 14 -30 31 -20 59 7 19 15 23 41 20 29 -3 33 -7 36 -35z m110 25
c19 -19 14 -46 -12 -63 -29 -19 -54 -10 -62 21 -11 43 42 74 74 42z m300 -25
c3 -27 -1 -35 -23 -45 -22 -10 -29 -9 -47 10 -19 18 -20 25 -10 47 10 22 18
26 45 23 28 -3 32 -7 35 -35z m-690 -135 c21 -21 14 -57 -12 -70 -46 -20 -78
12 -58 58 13 26 49 33 70 12z m260 0 c21 -21 14 -57 -12 -70 -46 -20 -78 12
-58 58 13 26 49 33 70 12z m152 -8 c15 -29 3 -59 -26 -66 -30 -8 -54 11 -54
40 0 46 59 64 80 26z m260 5 c31 -38 -27 -96 -65 -65 -18 15 -20 51 -3 68 17
17 53 15 68 -3z m-656 -161 c30 -30 13 -74 -29 -74 -42 0 -59 44 -29 74 8 9
22 16 29 16 7 0 21 -7 29 -16z m217 6 c37 -20 18 -80 -26 -80 -43 0 -58 39
-28 72 19 21 27 22 54 8z m183 -9 c23 -25 13 -59 -20 -67 -36 -9 -54 2 -54 34
0 51 41 69 74 33z m227 9 c37 -20 18 -80 -26 -80 -42 0 -59 44 -29 74 18 19
28 20 55 6z m-603 -182 c33 -33 -16 -91 -57 -68 -39 20 -21 80 24 80 12 0 26
-5 33 -12z m180 0 c33 -33 -16 -91 -57 -68 -39 20 -21 80 24 80 12 0 26 -5 33
-12z m220 -25 c2 -24 -2 -34 -18 -43 -40 -21 -75 14 -59 58 7 19 15 23 41 20
29 -3 33 -7 36 -35z m192 22 c30 -36 -18 -87 -62 -64 -20 11 -24 49 -6 67 17
17 53 15 68 -3z m-576 -191 c20 -20 20 -33 -1 -56 -29 -32 -73 -16 -73 27 0
42 44 59 74 29z m136 -4 c15 -29 3 -59 -26 -66 -30 -8 -54 11 -54 40 0 46 59
64 80 26z m278 8 c21 -21 14 -57 -12 -70 -46 -20 -78 12 -58 58 13 26 49 33
70 12z m130 0 c21 -21 14 -57 -12 -70 -46 -20 -78 12 -58 58 13 26 49 33 70
12z"/>
<path d="M561 3564 c-31 -39 -28 -89 8 -125 35 -34 86 -39 121 -11 22 18 22
18 -19 14 -34 -3 -45 0 -71 26 -31 32 -37 60 -19 94 16 31 4 32 -20 2z"/>
<path d="M9292 3577 c-6 -7 -16 -26 -22 -41 -32 -86 76 -163 149 -107 l25 19
-45 -5 c-38 -4 -50 -1 -74 20 -23 19 -29 32 -28 61 1 20 7 43 13 51 7 9 8 15
2 15 -5 0 -14 -6 -20 -13z"/>
<path d="M566 3171 c-10 -11 -20 -37 -23 -58 -4 -32 0 -45 22 -71 22 -27 34
-32 70 -32 28 0 51 7 66 20 25 21 20 26 -10 10 -30 -15 -89 6 -106 40 -19 37
-19 60 1 88 19 27 4 29 -20 3z"/>
<path d="M9292 3168 c-11 -13 -23 -35 -27 -49 -8 -31 16 -83 44 -99 32 -17 87
-12 112 10 l24 20 -29 -10 c-59 -21 -116 20 -116 85 0 22 5 46 12 53 7 7 10
12 7 12 -3 0 -15 -10 -27 -22z"/>
<path d="M566 2759 c-14 -17 -26 -41 -26 -54 0 -88 111 -136 166 -73 19 21 19
21 -5 9 -77 -41 -165 56 -115 127 22 32 10 27 -20 -9z"/>
<path d="M9298 2773 c-45 -52 -46 -103 -2 -144 34 -32 95 -32 126 -1 l22 22
-31 -12 c-43 -16 -91 5 -109 49 -12 28 -12 38 0 68 17 39 16 43 -6 18z"/>
<path d="M560 2353 c-17 -22 -21 -37 -17 -68 11 -79 96 -112 154 -59 22 20 23
23 6 15 -38 -19 -73 -13 -104 18 -31 31 -36 59 -18 93 17 31 4 32 -21 1z"/>
<path d="M9279 2348 c-26 -43 -19 -84 21 -120 34 -31 67 -35 110 -13 38 20 38
26 0 19 -42 -9 -77 3 -96 32 -19 29 -21 79 -3 100 8 10 8 14 0 14 -6 0 -20
-15 -32 -32z"/>
<path d="M566 1961 c-10 -11 -20 -38 -23 -60 -5 -35 -2 -44 25 -71 36 -36 92
-41 131 -11 l24 18 -50 -4 c-42 -4 -54 -2 -72 16 -30 30 -37 70 -18 103 18 32
8 37 -17 9z"/>
<path d="M9291 1961 c-41 -41 -31 -124 18 -151 32 -17 87 -12 112 10 l24 20
-29 -10 c-59 -21 -116 20 -116 85 0 22 5 46 12 53 7 7 9 12 5 12 -4 0 -16 -9
-26 -19z"/>
<path d="M9289 1554 c-34 -36 -33 -95 4 -131 35 -36 96 -38 129 -5 l22 22 -31
-12 c-27 -10 -38 -9 -66 4 -45 21 -59 61 -42 111 7 20 12 37 11 37 -2 0 -13
-12 -27 -26z"/>
<path d="M555 1540 c-8 -16 -15 -40 -15 -53 0 -30 35 -75 68 -88 29 -11 83 3
103 27 10 13 8 13 -16 4 -78 -30 -153 50 -115 121 7 13 7 19 1 19 -6 0 -17
-13 -26 -30z"/>
<path d="M1166 1149 c-43 -51 -32 -115 24 -144 42 -22 75 -19 107 11 22 20 23
23 6 15 -38 -19 -73 -13 -104 18 -32 33 -36 62 -15 104 19 35 14 34 -18 -4z"/>
<path d="M2422 1158 c-11 -13 -24 -35 -27 -51 -21 -83 87 -153 147 -94 13 12
19 19 14 15 -19 -15 -73 -8 -99 12 -34 27 -43 70 -22 109 19 37 16 39 -13 9z"/>
<path d="M3362 1158 c-11 -13 -24 -35 -27 -51 -21 -83 87 -153 147 -94 13 12
19 19 14 15 -19 -15 -73 -8 -99 12 -33 26 -43 71 -24 110 18 36 17 37 -11 8z"/>
<path d="M4296 1149 c-76 -90 45 -212 131 -133 22 20 23 23 6 15 -38 -19 -73
-13 -104 18 -32 33 -36 62 -15 104 19 35 14 34 -18 -4z"/>
<path d="M6176 1149 c-53 -62 -21 -145 60 -156 34 -4 45 -1 70 22 22 20 24 24
7 16 -38 -19 -73 -13 -104 18 -33 33 -38 74 -13 109 22 32 10 27 -20 -9z"/>
<path d="M6492 1158 c-11 -13 -24 -35 -27 -51 -21 -83 87 -153 147 -94 13 12
19 19 14 15 -19 -15 -73 -8 -99 12 -34 27 -43 70 -22 109 19 37 16 39 -13 9z"/>
<path d="M8366 1149 c-43 -51 -29 -117 31 -148 35 -18 70 -13 100 15 22 20 23
23 6 15 -38 -19 -73 -13 -104 18 -32 33 -36 62 -15 104 19 35 14 34 -18 -4z"/>
<path d="M9298 1163 c-28 -33 -39 -64 -33 -93 8 -36 58 -80 91 -80 31 0 84 27
84 42 0 9 -3 9 -12 0 -7 -7 -27 -12 -45 -12 -37 0 -82 36 -84 67 -2 32 3 58
13 71 17 20 3 24 -14 5z"/>
<path d="M553 1144 c-27 -42 -20 -93 16 -126 17 -16 43 -28 57 -28 31 0 84 26
84 42 0 9 -3 9 -12 0 -21 -21 -77 -14 -103 13 -27 27 -35 91 -13 113 9 9 9 12
0 12 -6 0 -19 -12 -29 -26z"/>
<path d="M846 1145 c-26 -40 -21 -92 14 -127 27 -27 36 -30 72 -25 23 3 50 15
62 27 l21 22 -22 -11 c-35 -18 -69 -13 -102 15 -33 27 -41 67 -21 105 15 28
-5 23 -24 -6z"/>
<path d="M1474 1149 c-12 -13 -19 -35 -19 -61 0 -33 6 -45 33 -69 36 -32 69
-36 112 -14 40 20 38 24 -9 18 -49 -7 -79 10 -97 53 -13 31 -13 39 0 65 17 34
7 38 -20 8z"/>
<path d="M1786 1148 c-9 -12 -16 -41 -16 -64 0 -35 5 -47 31 -68 37 -31 73
-33 117 -6 34 21 45 38 13 20 -60 -31 -131 11 -131 78 0 21 5 43 12 50 9 9 9
12 1 12 -7 0 -19 -10 -27 -22z"/>
<path d="M2101 1144 c-28 -36 -27 -86 3 -121 33 -38 104 -40 138 -4 23 23 23
23 1 12 -76 -39 -162 45 -123 120 15 27 5 24 -19 -7z"/>
<path d="M2724 1145 c-27 -42 -21 -95 15 -127 17 -15 43 -28 57 -28 31 0 84
26 84 42 0 9 -3 9 -12 0 -21 -21 -73 -14 -102 13 -19 18 -26 34 -26 63 0 21 5
43 12 50 9 9 9 12 0 12 -6 0 -19 -11 -28 -25z"/>
<path d="M3035 1140 c-36 -69 -3 -137 71 -147 34 -4 45 -1 70 22 22 20 24 24
7 16 -77 -38 -162 46 -123 120 7 13 7 19 1 19 -6 0 -17 -13 -26 -30z"/>
<path d="M3663 1144 c-28 -43 -22 -92 15 -125 18 -16 44 -29 58 -29 31 0 84
26 84 42 0 9 -3 9 -12 0 -21 -21 -77 -14 -103 13 -27 27 -35 91 -13 113 9 9 9
12 0 12 -6 0 -19 -12 -29 -26z"/>
<path d="M3976 1145 c-26 -40 -21 -92 14 -127 27 -27 36 -30 72 -25 22 3 50
15 62 26 l20 21 -30 -12 c-76 -28 -145 39 -116 114 13 35 0 37 -22 3z"/>
<path d="M4600 1138 c-24 -40 -25 -50 -5 -93 16 -33 50 -55 86 -55 27 0 79 28
79 42 0 9 -3 9 -12 0 -15 -15 -63 -16 -90 -1 -11 6 -26 26 -34 45 -13 31 -13
39 0 65 20 40 1 37 -24 -3z"/>
<path d="M4916 1148 c-27 -38 -20 -95 13 -129 33 -33 67 -37 111 -14 37 19 39
28 5 19 -78 -19 -142 58 -105 127 15 27 -5 25 -24 -3z"/>
<path d="M5230 1143 c-27 -34 -22 -95 10 -127 30 -31 102 -29 132 3 23 23 23
23 1 12 -76 -39 -162 45 -123 120 15 28 5 23 -20 -8z"/>
<path d="M5547 1153 c-26 -29 -30 -68 -12 -106 27 -58 95 -75 137 -34 13 12
19 19 14 15 -6 -5 -25 -8 -43 -8 -64 0 -111 76 -79 125 19 29 7 34 -17 8z"/>
<path d="M5856 1148 c-9 -12 -16 -41 -16 -64 0 -35 5 -47 31 -68 17 -14 42
-26 55 -26 22 0 84 25 84 34 0 2 -19 1 -42 -1 -58 -7 -98 28 -98 85 0 21 5 43
12 50 9 9 9 12 1 12 -7 0 -19 -10 -27 -22z"/>
<path d="M6793 1144 c-27 -42 -20 -93 16 -126 17 -16 43 -28 57 -28 31 0 84
26 84 42 0 9 -3 9 -12 0 -21 -21 -77 -14 -103 13 -27 27 -35 91 -13 113 9 9 9
12 0 12 -6 0 -19 -12 -29 -26z"/>
<path d="M7110 1148 c-32 -34 -27 -92 10 -130 27 -27 36 -30 72 -25 23 3 50
15 62 27 l21 22 -22 -11 c-76 -39 -162 45 -123 120 14 25 6 24 -20 -3z"/>
<path d="M7421 1144 c-69 -88 52 -203 136 -129 l28 24 -32 -11 c-41 -15 -79
-3 -107 35 -17 24 -19 32 -9 67 5 22 9 40 7 40 -1 0 -12 -12 -23 -26z"/>
<path d="M7733 1144 c-28 -43 -22 -92 15 -125 18 -16 44 -29 58 -29 31 0 84
26 84 42 0 9 -3 9 -12 0 -21 -21 -77 -14 -103 13 -27 27 -35 91 -13 113 9 9 9
12 0 12 -6 0 -19 -12 -29 -26z"/>
<path d="M8046 1145 c-24 -36 -20 -89 8 -122 32 -37 103 -40 138 -6 l22 23
-30 -12 c-80 -30 -153 49 -114 123 15 28 -5 23 -24 -6z"/>
<path d="M8675 1147 c-8 -13 -18 -37 -21 -55 -6 -27 -1 -37 29 -67 22 -22 45
-35 61 -35 33 0 86 26 86 42 0 9 -3 9 -12 0 -17 -17 -69 -15 -95 3 -12 8 -27
31 -33 50 -10 30 -9 40 4 60 9 14 12 25 6 25 -5 0 -16 -10 -25 -23z"/>
<path d="M8986 1148 c-27 -38 -20 -95 13 -129 35 -35 72 -37 119 -9 34 21 45
38 13 20 -60 -31 -131 11 -131 78 0 21 5 43 12 50 9 9 9 12 1 12 -7 0 -19 -10
-27 -22z"/>
<path d="M182 2314 c4 -21 22 -23 26 -1 2 10 -3 17 -13 17 -10 0 -15 -6 -13
-16z"/>
<path d="M232 2313 c2 -10 10 -18 18 -18 8 0 16 8 18 18 2 12 -3 17 -18 17
-15 0 -20 -5 -18 -17z"/>
<path d="M237 2224 c-15 -15 -7 -45 11 -42 9 2 17 12 17 22 0 20 -16 31 -28
20z"/>
<path d="M193 2113 c-20 -8 -15 -31 8 -38 28 -9 69 2 69 19 0 22 -44 33 -77
19z"/>
<path d="M237 1834 c-15 -15 -7 -45 11 -42 9 2 17 12 17 22 0 20 -16 31 -28
20z"/>
<path d="M182 1704 c4 -21 22 -23 26 -1 2 10 -3 17 -13 17 -10 0 -15 -6 -13
-16z"/>
<path d="M232 1703 c2 -10 10 -18 18 -18 8 0 16 8 18 18 2 12 -3 17 -18 17
-15 0 -20 -5 -18 -17z"/>
<path d="M210 1410 c0 -5 5 -10 10 -10 6 0 10 5 10 10 0 6 -4 10 -10 10 -5 0
-10 -4 -10 -10z"/>
<path d="M214 975 c-4 -9 -2 -21 4 -27 16 -16 47 -5 47 17 0 26 -42 34 -51 10z"/>
<path d="M210 656 c0 -8 5 -18 10 -21 6 -3 10 3 10 14 0 12 -4 21 -10 21 -5 0
-10 -6 -10 -14z"/>
<path d="M217 563 c-17 -16 -5 -33 23 -33 19 0 30 5 30 14 0 20 -39 34 -53 19z"/>
<path d="M214 445 c-4 -9 -2 -21 4 -27 16 -16 47 -5 47 17 0 26 -42 34 -51 10z"/>
<path d="M212 323 c2 -12 12 -18 28 -18 16 0 26 6 28 18 3 13 -3 17 -28 17
-25 0 -31 -4 -28 -17z"/>
<path d="M203 223 c-30 -6 -29 -20 2 -25 19 -4 25 -1 25 13 0 11 -1 18 -2 18
-2 -1 -13 -4 -25 -6z"/>
</g>
</svg>
